<svg width="64" height="64" viewBox="0 0 300 300" xmlns="http://www.w3.org/2000/svg">
  <defs>
    <linearGradient id="hexGradient" x1="0%" y1="0%" x2="100%" y2="100%">
      <stop offset="0%" stop-color="#64d2ff"/>
      <stop offset="100%" stop-color="#b36bff"/>
    </linearGradient>
  </defs>

  <polygon 
    points="150,20 245,75 245,185 150,240 55,185 55,75"
    fill="none"
    stroke="url(#hexGradient)"
    stroke-width="10"
  />

  <g stroke="url(#hexGradient)" stroke-width="6">
    <circle cx="150" cy="40" r="10" fill="url(#hexGradient)" />
    <circle cx="225" cy="90" r="10" fill="url(#hexGradient)" />
    <circle cx="225" cy="170" r="10" fill="url(#hexGradient)" />
    <circle cx="150" cy="220" r="10" fill="url(#hexGradient)" />
    <circle cx="75"  cy="170" r="10" fill="url(#hexGradient)" />
    <circle cx="75"  cy="90"  r="10" fill="url(#hexGradient)" />

    <circle cx="150" cy="130" r="12" fill="url(#hexGradient)" />

    <line x1="150" y1="130" x2="150" y2="40" />
    <line x1="150" y1="130" x2="225" y2="90" />
    <line x1="150" y1="130" x2="225" y2="170" />
    <line x1="150" y1="130" x2="150" y2="220" />
    <line x1="150" y1="130" x2="75"  y2="170" />
    <line x1="150" y1="130" x2="75"  y2="90" />

    <line x1="150" y1="40" x2="225" y2="90" />
    <line x1="225" y1="90" x2="225" y2="170" />
    <line x1="225" y1="170" x2="150" y2="220" />
    <line x1="150" y1="220" x2="75" y2="170" />
    <line x1="75" y1="170" x2="75" y2="90" />
    <line x1="75" y1="90" x2="150" y2="40" />
  </g>
</svg>
